HIERARCHY
ROOT root
{
	OFFSET 0.000000 0.000000 0.000000
	CHANNELS 6 Xposition Yposition Zposition Zrotation Yrotation Xrotation
	JOINT lhip
	{
		OFFSET 0.058581 -0.082280 -0.017664
		CHANNELS 3 Zrotation Yrotation Xrotation
		JOINT lknee
		{
			OFFSET 0.043451 -0.386469 0.008037
			CHANNELS 3 Zrotation Yrotation Xrotation
			JOINT lankle
			{
				OFFSET -0.014790 -0.426874 -0.037428
				CHANNELS 3 Zrotation Yrotation Xrotation
				JOINT ltoe
				{
					OFFSET 0.041054 -0.060286 0.122042
					CHANNELS 3 Zrotation Yrotation Xrotation
					End Site
					{
						OFFSET 0.000000 0.000000 0.000000
					}
				}
			}
		}
	}
	JOINT rhip
	{
		OFFSET -0.060310 -0.090513 -0.013543
		CHANNELS 3 Zrotation Yrotation Xrotation
		JOINT rknee
		{
			OFFSET -0.043257 -0.383688 -0.004843
			CHANNELS 3 Zrotation Yrotation Xrotation
			JOINT rankle
			{
				OFFSET 0.019056 -0.420046 -0.034562
				CHANNELS 3 Zrotation Yrotation Xrotation
				JOINT rtoe
				{
					OFFSET -0.034840 -0.062106 0.130323
					CHANNELS 3 Zrotation Yrotation Xrotation
					End Site
					{
						OFFSET 0.000000 0.000000 0.000000
					}
				}
			}
		}
	}
	JOINT lowerback
	{
		OFFSET 0.004439 0.124404 -0.038385
		CHANNELS 3 Zrotation Yrotation Xrotation
		JOINT upperback
		{
			OFFSET 0.004488 0.137956 0.026820
			CHANNELS 3 Zrotation Yrotation Xrotation
			JOINT chest
			{
				OFFSET -0.002265 0.056032 0.002855
				CHANNELS 3 Zrotation Yrotation Xrotation
				JOINT lowerneck
				{
					OFFSET -0.013390 0.211636 -0.033468
					CHANNELS 3 Zrotation Yrotation Xrotation
					JOINT upperneck
					{
						OFFSET 0.010113 0.088937 0.050410
						CHANNELS 3 Zrotation Yrotation Xrotation
						End Site
						{
							OFFSET 0.000000 0.000000 0.000000
						}
					}
				}
				JOINT lclavicle
				{
					OFFSET 0.071702 0.114000 -0.018898
					CHANNELS 3 Zrotation Yrotation Xrotation
					JOINT lshoulder
					{
						OFFSET 0.122921 0.045205 -0.019046
						CHANNELS 3 Zrotation Yrotation Xrotation
						JOINT lelbow
						{
							OFFSET 0.255332 -0.015649 -0.022946
							CHANNELS 3 Zrotation Yrotation Xrotation
							JOINT lwrist
							{
								OFFSET 0.265709 0.012698 -0.007375
								CHANNELS 3 Zrotation Yrotation Xrotation
								End Site
								{
									OFFSET 0.000000 0.000000 0.000000
								}
							}
						}
					}
				}
				JOINT rclavicle
				{
					OFFSET -0.082954 0.112472 -0.023707
					CHANNELS 3 Zrotation Yrotation Xrotation
					JOINT rshoulder
					{
						OFFSET -0.113228 0.046853 -0.008472
						CHANNELS 3 Zrotation Yrotation Xrotation
						JOINT relbow
						{
							OFFSET -0.260127 -0.014369 -0.031269
							CHANNELS 3 Zrotation Yrotation Xrotation
							JOINT rwrist
							{
								OFFSET -0.269108 0.006794 -0.006027
								CHANNELS 3 Zrotation Yrotation Xrotation
								End Site
								{
									OFFSET 0.000000 0.000000 0.000000
								}
							}
						}
					}
				}
			}
		}
	}
}
MOTION
Frames: 11
Frame Time: 0.033333
-1.501097 0.242512 0.968681 134.288692 -5.040677 89.879652 -0.158047 -12.102395 -7.567048 -2.747554 -18.351616 7.680781 2.191377 3.379981 -11.204045 0.000000 -0.000000 0.000000 -12.444854 -13.880439 0.271230 -4.978017 -18.949542 21.838508 3.923051 -19.523705 -16.395299 0.000000 -0.000000 0.000000 3.063588 11.348381 5.333786 -4.238493 5.482285 0.908274 -1.248450 4.078893 -0.158940 -2.239242 29.719833 -3.586705 -2.660080 20.768402 11.987074 -23.079844 6.288044 -2.302307 -61.166987 -0.703509 7.919806 12.624363 -29.730917 10.336200 2.010424 -0.977960 -2.946215 25.127245 3.374301 2.060729 62.065575 7.266815 18.222793 -9.051893 22.717345 7.511424 -15.740182 3.903360 7.607482 
-1.500375 0.244188 0.968480 133.749603 -5.192218 89.722406 -0.340807 -12.446154 -7.344573 -2.850736 -18.071489 7.777478 2.176738 4.065953 -11.407411 0.000000 -0.000000 0.000000 -12.759240 -13.639395 0.343706 -4.939139 -18.697623 21.808836 4.343777 -19.475504 -16.558336 0.000000 -0.000000 0.000000 2.836190 11.438640 5.255789 -3.993320 5.404449 1.123021 -1.229025 4.061223 -0.089377 -2.522927 30.300243 -4.147749 -2.768928 20.957521 12.846478 -24.361394 5.798149 -2.852215 -59.923187 -1.164430 8.441334 12.865956 -29.282435 8.743496 2.827954 -0.781275 -2.448547 26.991098 2.802872 2.175148 59.668160 6.704165 18.847189 -8.842815 23.255734 7.978430 -16.556849 3.176268 6.841946 
-1.499043 0.245546 0.968434 133.213564 -5.172828 89.633725 -0.331311 -12.328917 -7.125891 -2.913912 -17.865725 7.789711 2.107983 4.228694 -11.480240 0.000000 -0.000000 0.000000 -12.831118 -13.593650 0.539503 -4.862269 -18.322583 21.489104 4.533261 -19.422989 -16.489697 0.000000 -0.000000 0.000000 2.649776 11.391039 4.905869 -3.836762 5.262198 1.425840 -1.143115 3.996500 -0.085180 -2.522123 30.677806 -4.014245 -2.789623 21.480467 12.864155 -24.649311 5.523585 -2.931887 -59.568897 -1.700945 8.606724 12.916140 -29.019720 7.942212 3.179349 -0.793512 -1.824556 27.592924 2.445139 2.140553 58.611455 6.357131 18.708525 -8.405670 23.238262 7.819864 -16.613177 3.397445 7.499176 
-1.497933 0.247088 0.968769 132.389683 -5.112221 89.622849 -0.266444 -11.997564 -6.753153 -2.910184 -17.497734 7.492138 2.023210 4.273768 -11.497239 0.000000 -0.000000 0.000000 -12.887398 -13.479542 0.649587 -4.773269 -17.940740 21.113375 4.688595 -19.173563 -16.364489 0.000000 -0.000000 0.000000 2.549795 11.193800 4.557587 -3.736683 5.036766 1.631087 -1.090560 3.909332 -0.234069 -2.587639 31.229244 -3.662350 -2.675783 22.196605 12.917310 -24.671728 5.230924 -2.927805 -59.387783 -1.897311 8.609606 12.826174 -29.077129 7.922968 2.755284 -1.008853 -1.974708 27.653053 2.136406 2.439273 58.102505 6.013979 18.372288 -8.190696 23.431964 7.968498 -16.421752 3.668465 7.780158 
-1.497323 0.247870 0.968977 131.825309 -5.077796 89.686612 -0.177722 -11.767010 -6.514263 -2.907276 -17.237832 7.154715 1.967146 4.314756 -11.437268 0.000000 -0.000000 0.000000 -12.895976 -13.381229 0.625025 -4.724200 -17.701370 20.893760 4.756199 -18.997929 -16.266317 0.000000 -0.000000 0.000000 2.481144 11.064693 4.337021 -3.709855 4.927039 1.694991 -1.075473 3.833754 -0.306652 -2.572609 31.601767 -3.422058 -2.604852 22.611915 12.941255 -24.596617 5.144245 -2.895831 -59.259719 -1.932194 8.617711 12.622849 -29.322040 8.151452 2.318859 -1.120462 -2.049071 27.529741 1.922827 2.470556 57.980936 5.844936 18.240010 -8.096983 23.616094 7.865080 -16.400674 3.567270 7.695024 
-1.496618 0.248747 0.969226 131.021055 -5.026051 89.816552 -0.040204 -11.337282 -6.260522 -2.927687 -16.933467 6.740384 1.890836 4.353103 -11.387848 0.000000 -0.000000 0.000000 -12.893553 -13.345222 0.495838 -4.666768 -17.303504 20.636219 4.855470 -18.718498 -16.156657 0.000000 -0.000000 0.000000 2.390679 10.918546 4.076723 -3.692536 4.817118 1.674292 -1.067500 3.788910 -0.320713 -2.571491 31.951922 -3.190125 -2.549714 23.072753 12.919947 -24.545874 5.070592 -2.878426 -59.147507 -2.116876 8.653890 12.454572 -29.496132 8.401287 2.077975 -1.241806 -2.283369 27.417260 1.553501 2.447872 57.623558 5.571915 18.072720 -7.858894 24.083318 8.119028 -16.360583 3.470135 7.416941 
-1.496310 0.249595 0.969405 130.243625 -4.975336 89.877882 0.033200 -11.021367 -5.989578 -2.900744 -16.611608 6.416679 1.832278 4.434510 -11.402853 0.000000 -0.000000 0.000000 -12.957218 -13.254946 0.431399 -4.585289 -17.049512 20.411022 4.989091 -18.366109 -16.074469 0.000000 -0.000000 0.000000 2.417843 10.767799 4.015063 -3.731979 4.732977 1.636603 -1.108909 3.743303 -0.371692 -2.619392 32.220235 -3.055540 -2.530163 23.393279 12.912229 -24.575849 4.908403 -2.855809 -59.072841 -2.284770 8.664956 12.483943 -29.606933 8.447767 1.668562 -1.370688 -2.129724 27.339103 1.255669 2.511690 57.170146 5.333678 17.838751 -7.728769 24.662294 8.296715 -16.170481 3.332964 7.042835 
-1.496208 0.250331 0.969601 129.505816 -4.895757 89.923728 0.103871 -10.744653 -5.803142 -2.883863 -16.313591 6.279608 1.808823 4.488493 -11.475820 0.000000 -0.000000 0.000000 -12.998267 -13.172726 0.352533 -4.492525 -16.772293 20.244297 5.126248 -18.049676 -16.006636 0.000000 -0.000000 0.000000 2.506080 10.610716 4.022699 -3.792683 4.689741 1.605909 -1.120376 3.635084 -0.387476 -2.825000 32.302858 -3.066557 -2.566751 23.817370 12.834275 -24.723952 4.791678 -2.941334 -59.006170 -2.440053 8.577364 12.613901 -29.682114 8.227802 1.383529 -1.468854 -2.252806 27.246365 1.100514 2.518521 56.835954 5.257586 17.622075 -7.833729 24.813723 8.113811 -16.282431 3.300675 7.174208 
-1.496127 0.250785 0.969707 128.837368 -4.806768 89.905376 0.179004 -10.525973 -5.655858 -2.898678 -16.021276 6.305498 1.839558 4.624512 -11.586368 0.000000 -0.000000 0.000000 -13.027466 -13.065855 0.333640 -4.396675 -16.525106 20.118791 5.255636 -17.763140 -15.981838 0.000000 -0.000000 0.000000 2.555902 10.532088 4.084456 -3.825951 4.650632 1.612513 -1.075763 3.520514 -0.379603 -3.046020 32.213148 -3.176276 -2.594982 24.064631 12.672458 -24.861484 4.626174 -2.953104 -59.127536 -2.759370 8.452015 12.879310 -29.605213 7.808761 1.524210 -1.355599 -2.242044 27.071677 0.998569 2.464739 56.538614 5.269182 17.337792 -7.894026 24.802545 7.885036 -16.294401 3.225579 7.164284 
-1.496352 0.251185 0.969803 128.121163 -4.687667 89.912679 0.239377 -10.373670 -5.635887 -2.879880 -15.697366 6.529141 1.882303 4.840554 -11.742589 0.000000 -0.000000 0.000000 -13.029309 -12.949668 0.228561 -4.311132 -16.285987 20.040355 5.373236 -17.439355 -15.936086 0.000000 -0.000000 0.000000 2.611704 10.402462 4.088630 -3.829888 4.585417 1.758141 -1.044509 3.439817 -0.305892 -3.323295 32.247633 -3.434584 -2.668910 24.337546 12.535989 -24.991006 4.292226 -3.060900 -59.462189 -3.130186 8.492564 13.401200 -29.387430 6.933242 1.941581 -1.162226 -2.485947 26.913015 1.050204 2.385896 56.144848 5.288965 17.132961 -8.171653 24.772431 7.375322 -16.130093 2.941616 6.810194 
-1.496220 0.251387 0.969932 127.598595 -4.573985 89.968647 0.352276 -10.288254 -5.629941 -2.868640 -15.433859 6.609374 1.833829 5.006561 -11.823204 0.000000 -0.000000 0.000000 -12.962936 -12.885682 0.105876 -4.271737 -16.114239 19.975120 5.461375 -17.209988 -15.906068 0.000000 -0.000000 0.000000 2.544689 10.349016 3.964501 -3.788962 4.543372 1.909895 -1.007640 3.387447 -0.231570 -3.239083 32.421133 -3.461410 -2.790295 24.619313 12.436404 -24.920282 4.113059 -3.194769 -59.801366 -3.325363 8.736047 13.728463 -29.307215 6.575202 1.938880 -1.152413 -2.764756 26.929498 1.074252 2.141447 55.755187 5.285365 17.089929 -8.306679 24.513234 6.926980 -16.005899 2.763391 6.645767 
